<mxfile host="65bd71144e">
    <diagram id="od-Q8J5Ht2uW0OzrTbwQ" name="Page-1">
        <mxGraphModel dx="1511" dy="970" grid="0" gridSize="10" guides="1" tooltips="1" connect="1" arrows="1" fold="1" page="1" pageScale="1" pageWidth="1100" pageHeight="850" math="0" shadow="0">
            <root>
                <mxCell id="0"/>
                <mxCell id="1" parent="0"/>
                <mxCell id="2" value="" style="rounded=0;whiteSpace=wrap;html=1;" parent="1" vertex="1">
                    <mxGeometry x="60" y="84" width="981" height="545" as="geometry"/>
                </mxCell>
                <mxCell id="3" value="Cart and orders_detail for user and admin" style="text;html=1;strokeColor=none;fillColor=none;align=center;verticalAlign=middle;whiteSpace=wrap;rounded=0;" parent="1" vertex="1">
                    <mxGeometry x="9" y="8" width="252" height="30" as="geometry"/>
                </mxCell>
                <mxCell id="4" value="Article #order-detail" style="text;html=1;strokeColor=none;fillColor=none;align=left;verticalAlign=middle;whiteSpace=wrap;rounded=0;" parent="1" vertex="1">
                    <mxGeometry x="60" y="46" width="316" height="30" as="geometry"/>
                </mxCell>
                <mxCell id="5" value="" style="rounded=0;whiteSpace=wrap;html=1;" parent="1" vertex="1">
                    <mxGeometry x="110" y="126" width="489" height="451" as="geometry"/>
                </mxCell>
                <mxCell id="6" value="" style="rounded=0;whiteSpace=wrap;html=1;" parent="1" vertex="1">
                    <mxGeometry x="719" y="128" width="290" height="447" as="geometry"/>
                </mxCell>
                <mxCell id="7" value="&lt;div style=&quot;text-align: left ; font-size: 17px&quot;&gt;&lt;font style=&quot;font-size: 17px&quot;&gt;Checkout:&lt;/font&gt;&lt;/div&gt;&lt;div style=&quot;text-align: left ; font-size: 17px&quot;&gt;&lt;font style=&quot;font-size: 17px&quot;&gt;&lt;span&gt;Sub-total&lt;/span&gt;&lt;span style=&quot;white-space: pre&quot;&gt;&#9;&lt;/span&gt;&lt;span style=&quot;white-space: pre&quot;&gt;&#9;&lt;/span&gt;&lt;span style=&quot;white-space: pre&quot;&gt;&#9;&lt;/span&gt;&lt;span style=&quot;white-space: pre&quot;&gt;&#9;&lt;/span&gt;&lt;span&gt;$xx.xx&lt;/span&gt;&lt;/font&gt;&lt;/div&gt;&lt;div style=&quot;text-align: left ; font-size: 17px&quot;&gt;&lt;span&gt;&lt;font style=&quot;font-size: 17px&quot;&gt;GST(5%)&lt;span style=&quot;white-space: pre&quot;&gt;&#9;&lt;/span&gt;&lt;span style=&quot;white-space: pre&quot;&gt;&#9;&lt;/span&gt;&lt;span style=&quot;white-space: pre&quot;&gt;&#9;&lt;/span&gt;&lt;span style=&quot;white-space: pre&quot;&gt;&#9;&lt;/span&gt;$xx.xx&lt;/font&gt;&lt;/span&gt;&lt;/div&gt;&lt;div style=&quot;text-align: left ; font-size: 17px&quot;&gt;&lt;span&gt;&lt;font style=&quot;font-size: 17px&quot;&gt;PST(7%)&lt;span style=&quot;white-space: pre&quot;&gt;&#9;&lt;/span&gt;&lt;span style=&quot;white-space: pre&quot;&gt;&#9;&lt;/span&gt;&lt;span style=&quot;white-space: pre&quot;&gt;&#9;&lt;/span&gt;&lt;span style=&quot;white-space: pre&quot;&gt;&#9;&lt;/span&gt;$xx.xx&lt;/font&gt;&lt;/span&gt;&lt;/div&gt;&lt;div style=&quot;text-align: left ; font-size: 17px&quot;&gt;&lt;span&gt;&lt;font style=&quot;font-size: 17px&quot;&gt;&lt;br&gt;&lt;/font&gt;&lt;/span&gt;&lt;/div&gt;&lt;div style=&quot;text-align: left ; font-size: 17px&quot;&gt;&lt;font style=&quot;font-size: 17px&quot;&gt;------------------------------------------&lt;/font&gt;&lt;/div&gt;&lt;div style=&quot;text-align: left ; font-size: 17px&quot;&gt;&lt;font style=&quot;font-size: 17px&quot;&gt;&lt;br&gt;&lt;/font&gt;&lt;/div&gt;&lt;div style=&quot;text-align: left ; font-size: 17px&quot;&gt;&lt;font style=&quot;font-size: 17px&quot;&gt;Total&lt;span style=&quot;white-space: pre&quot;&gt;&#9;&lt;/span&gt;&lt;span style=&quot;white-space: pre&quot;&gt;&#9;&lt;/span&gt;&lt;span style=&quot;white-space: pre&quot;&gt;&#9;&lt;/span&gt;&lt;span style=&quot;white-space: pre&quot;&gt;&#9;&lt;/span&gt;$xx.xx&lt;/font&gt;&lt;/div&gt;" style="rounded=0;whiteSpace=wrap;html=1;" parent="1" vertex="1">
                    <mxGeometry x="736" y="150" width="256" height="326" as="geometry"/>
                </mxCell>
                <mxCell id="8" value="Place my order (user)&lt;br&gt;Complete order (admin)" style="rounded=1;whiteSpace=wrap;html=1;" parent="1" vertex="1">
                    <mxGeometry x="776" y="492" width="181" height="60" as="geometry"/>
                </mxCell>
                <mxCell id="11" value="div-left" style="text;html=1;strokeColor=none;fillColor=none;align=center;verticalAlign=middle;whiteSpace=wrap;rounded=0;fontSize=17;" parent="1" vertex="1">
                    <mxGeometry x="108" y="93" width="60" height="30" as="geometry"/>
                </mxCell>
                <mxCell id="12" value="div-right" style="text;html=1;strokeColor=none;fillColor=none;align=center;verticalAlign=middle;whiteSpace=wrap;rounded=0;fontSize=17;" parent="1" vertex="1">
                    <mxGeometry x="719" y="96" width="84" height="30" as="geometry"/>
                </mxCell>
                <mxCell id="26" value="" style="rounded=0;whiteSpace=wrap;html=1;fontSize=17;strokeColor=#FFFF66;" vertex="1" parent="1">
                    <mxGeometry x="118" y="133" width="472" height="136" as="geometry"/>
                </mxCell>
                <mxCell id="27" value="" style="rounded=0;whiteSpace=wrap;html=1;fontSize=17;strokeColor=#FF9999;" vertex="1" parent="1">
                    <mxGeometry x="118" y="283" width="474" height="270" as="geometry"/>
                </mxCell>
                <mxCell id="13" value="Order / Order_id" style="shape=table;startSize=46;container=1;collapsible=0;childLayout=tableLayout;fontStyle=1;align=center;pointerEvents=1;fontSize=17;" parent="1" vertex="1">
                    <mxGeometry x="128" y="145" width="451" height="394" as="geometry"/>
                </mxCell>
                <mxCell id="14" value="" style="shape=partialRectangle;html=1;whiteSpace=wrap;collapsible=0;dropTarget=0;pointerEvents=0;fillColor=none;top=0;left=0;bottom=0;right=0;points=[[0,0.5],[1,0.5]];portConstraint=eastwest;fontSize=17;" parent="13" vertex="1">
                    <mxGeometry y="46" width="451" height="73" as="geometry"/>
                </mxCell>
                <mxCell id="15" value="Dish" style="shape=partialRectangle;html=1;whiteSpace=wrap;connectable=0;fillColor=none;top=0;left=0;bottom=0;right=0;overflow=hidden;pointerEvents=1;fontSize=17;" parent="14" vertex="1">
                    <mxGeometry width="91" height="73" as="geometry">
                        <mxRectangle width="91" height="73" as="alternateBounds"/>
                    </mxGeometry>
                </mxCell>
                <mxCell id="16" value="Amount" style="shape=partialRectangle;html=1;whiteSpace=wrap;connectable=0;fillColor=none;top=0;left=0;bottom=0;right=0;overflow=hidden;pointerEvents=1;fontSize=17;" parent="14" vertex="1">
                    <mxGeometry x="91" width="90" height="73" as="geometry">
                        <mxRectangle width="90" height="73" as="alternateBounds"/>
                    </mxGeometry>
                </mxCell>
                <mxCell id="17" value="Price" style="shape=partialRectangle;html=1;whiteSpace=wrap;connectable=0;fillColor=none;top=0;left=0;bottom=0;right=0;overflow=hidden;pointerEvents=1;fontSize=17;" parent="14" vertex="1">
                    <mxGeometry x="181" width="91" height="73" as="geometry">
                        <mxRectangle width="91" height="73" as="alternateBounds"/>
                    </mxGeometry>
                </mxCell>
                <mxCell id="34" style="shape=partialRectangle;html=1;whiteSpace=wrap;connectable=0;fillColor=none;top=0;left=0;bottom=0;right=0;overflow=hidden;pointerEvents=1;fontSize=17;" vertex="1" parent="14">
                    <mxGeometry x="272" width="89" height="73" as="geometry">
                        <mxRectangle width="89" height="73" as="alternateBounds"/>
                    </mxGeometry>
                </mxCell>
                <mxCell id="40" style="shape=partialRectangle;html=1;whiteSpace=wrap;connectable=0;fillColor=none;top=0;left=0;bottom=0;right=0;overflow=hidden;pointerEvents=1;fontSize=17;" vertex="1" parent="14">
                    <mxGeometry x="361" width="90" height="73" as="geometry">
                        <mxRectangle width="90" height="73" as="alternateBounds"/>
                    </mxGeometry>
                </mxCell>
                <mxCell id="18" value="" style="shape=partialRectangle;html=1;whiteSpace=wrap;collapsible=0;dropTarget=0;pointerEvents=0;fillColor=none;top=0;left=0;bottom=0;right=0;points=[[0,0.5],[1,0.5]];portConstraint=eastwest;fontSize=17;" parent="13" vertex="1">
                    <mxGeometry y="119" width="451" height="137" as="geometry"/>
                </mxCell>
                <mxCell id="19" value="Spicy Beef" style="shape=partialRectangle;html=1;whiteSpace=wrap;connectable=0;fillColor=none;top=0;left=0;bottom=0;right=0;overflow=hidden;pointerEvents=1;fontSize=17;" parent="18" vertex="1">
                    <mxGeometry width="91" height="137" as="geometry">
                        <mxRectangle width="91" height="137" as="alternateBounds"/>
                    </mxGeometry>
                </mxCell>
                <mxCell id="20" value="" style="shape=partialRectangle;html=1;whiteSpace=wrap;connectable=0;fillColor=none;top=0;left=0;bottom=0;right=0;overflow=hidden;pointerEvents=1;fontSize=17;" parent="18" vertex="1">
                    <mxGeometry x="91" width="90" height="137" as="geometry">
                        <mxRectangle width="90" height="137" as="alternateBounds"/>
                    </mxGeometry>
                </mxCell>
                <mxCell id="21" value="7.99" style="shape=partialRectangle;html=1;whiteSpace=wrap;connectable=0;fillColor=none;top=0;left=0;bottom=0;right=0;overflow=hidden;pointerEvents=1;fontSize=17;" parent="18" vertex="1">
                    <mxGeometry x="181" width="91" height="137" as="geometry">
                        <mxRectangle width="91" height="137" as="alternateBounds"/>
                    </mxGeometry>
                </mxCell>
                <mxCell id="35" style="shape=partialRectangle;html=1;whiteSpace=wrap;connectable=0;fillColor=none;top=0;left=0;bottom=0;right=0;overflow=hidden;pointerEvents=1;fontSize=17;" vertex="1" parent="18">
                    <mxGeometry x="272" width="89" height="137" as="geometry">
                        <mxRectangle width="89" height="137" as="alternateBounds"/>
                    </mxGeometry>
                </mxCell>
                <mxCell id="41" style="shape=partialRectangle;html=1;whiteSpace=wrap;connectable=0;fillColor=none;top=0;left=0;bottom=0;right=0;overflow=hidden;pointerEvents=1;fontSize=17;" vertex="1" parent="18">
                    <mxGeometry x="361" width="90" height="137" as="geometry">
                        <mxRectangle width="90" height="137" as="alternateBounds"/>
                    </mxGeometry>
                </mxCell>
                <mxCell id="22" value="" style="shape=partialRectangle;html=1;whiteSpace=wrap;collapsible=0;dropTarget=0;pointerEvents=0;fillColor=none;top=0;left=0;bottom=0;right=0;points=[[0,0.5],[1,0.5]];portConstraint=eastwest;fontSize=17;" parent="13" vertex="1">
                    <mxGeometry y="256" width="451" height="138" as="geometry"/>
                </mxCell>
                <mxCell id="23" value="Hawaiian" style="shape=partialRectangle;html=1;whiteSpace=wrap;connectable=0;fillColor=none;top=0;left=0;bottom=0;right=0;overflow=hidden;pointerEvents=1;fontSize=17;" parent="22" vertex="1">
                    <mxGeometry width="91" height="138" as="geometry">
                        <mxRectangle width="91" height="138" as="alternateBounds"/>
                    </mxGeometry>
                </mxCell>
                <mxCell id="24" value="" style="shape=partialRectangle;html=1;whiteSpace=wrap;connectable=0;fillColor=none;top=0;left=0;bottom=0;right=0;overflow=hidden;pointerEvents=1;fontSize=17;" parent="22" vertex="1">
                    <mxGeometry x="91" width="90" height="138" as="geometry">
                        <mxRectangle width="90" height="138" as="alternateBounds"/>
                    </mxGeometry>
                </mxCell>
                <mxCell id="25" value="8.99" style="shape=partialRectangle;html=1;whiteSpace=wrap;connectable=0;fillColor=none;top=0;left=0;bottom=0;right=0;overflow=hidden;pointerEvents=1;fontSize=17;" parent="22" vertex="1">
                    <mxGeometry x="181" width="91" height="138" as="geometry">
                        <mxRectangle width="91" height="138" as="alternateBounds"/>
                    </mxGeometry>
                </mxCell>
                <mxCell id="36" style="shape=partialRectangle;html=1;whiteSpace=wrap;connectable=0;fillColor=none;top=0;left=0;bottom=0;right=0;overflow=hidden;pointerEvents=1;fontSize=17;" vertex="1" parent="22">
                    <mxGeometry x="272" width="89" height="138" as="geometry">
                        <mxRectangle width="89" height="138" as="alternateBounds"/>
                    </mxGeometry>
                </mxCell>
                <mxCell id="42" style="shape=partialRectangle;html=1;whiteSpace=wrap;connectable=0;fillColor=none;top=0;left=0;bottom=0;right=0;overflow=hidden;pointerEvents=1;fontSize=17;" vertex="1" parent="22">
                    <mxGeometry x="361" width="90" height="138" as="geometry">
                        <mxRectangle width="90" height="138" as="alternateBounds"/>
                    </mxGeometry>
                </mxCell>
                <mxCell id="28" value="&lt;font color=&quot;#ffff66&quot;&gt;div .list-head&lt;/font&gt;" style="text;html=1;strokeColor=none;fillColor=none;align=center;verticalAlign=middle;whiteSpace=wrap;rounded=0;fontSize=17;" vertex="1" parent="1">
                    <mxGeometry x="54" y="177" width="60" height="30" as="geometry"/>
                </mxCell>
                <mxCell id="29" value="&lt;font color=&quot;#ff9999&quot;&gt;div . list-body&lt;/font&gt;" style="text;html=1;strokeColor=none;fillColor=none;align=center;verticalAlign=middle;whiteSpace=wrap;rounded=0;fontSize=17;fontColor=#FFFF66;" vertex="1" parent="1">
                    <mxGeometry x="48" y="354" width="60" height="30" as="geometry"/>
                </mxCell>
                <mxCell id="30" value="Still trying to figure out how to temporarily store the order without submitting to database..." style="text;html=1;strokeColor=none;fillColor=none;align=center;verticalAlign=middle;whiteSpace=wrap;rounded=0;fontSize=17;fontColor=#FFFFFF;" vertex="1" parent="1">
                    <mxGeometry x="84" y="647" width="800" height="30" as="geometry"/>
                </mxCell>
                <mxCell id="32" value="1&lt;br&gt;number input" style="rounded=0;whiteSpace=wrap;html=1;fontSize=17;fontColor=#FFFFFF;strokeColor=#FFFFFF;" vertex="1" parent="1">
                    <mxGeometry x="227" y="303" width="77" height="60" as="geometry"/>
                </mxCell>
                <mxCell id="33" value="2&lt;br&gt;number input" style="rounded=0;whiteSpace=wrap;html=1;fontSize=17;fontColor=#FFFFFF;strokeColor=#FFFFFF;" vertex="1" parent="1">
                    <mxGeometry x="227" y="438" width="75" height="60" as="geometry"/>
                </mxCell>
                <mxCell id="38" value="Update" style="rounded=1;whiteSpace=wrap;html=1;fontSize=17;fontColor=#FFFFFF;strokeColor=#FFFFFF;" vertex="1" parent="1">
                    <mxGeometry x="406" y="312" width="75" height="60" as="geometry"/>
                </mxCell>
                <mxCell id="39" value="Update" style="rounded=1;whiteSpace=wrap;html=1;fontSize=17;fontColor=#FFFFFF;strokeColor=#FFFFFF;" vertex="1" parent="1">
                    <mxGeometry x="406" y="432" width="75" height="60" as="geometry"/>
                </mxCell>
                <mxCell id="43" value="Remove" style="rounded=1;whiteSpace=wrap;html=1;fontSize=17;fontColor=#FFFFFF;strokeColor=#FFFFFF;" vertex="1" parent="1">
                    <mxGeometry x="496" y="312" width="75" height="60" as="geometry"/>
                </mxCell>
                <mxCell id="44" value="Remove" style="rounded=1;whiteSpace=wrap;html=1;fontSize=17;fontColor=#FFFFFF;strokeColor=#FFFFFF;" vertex="1" parent="1">
                    <mxGeometry x="496" y="432" width="75" height="60" as="geometry"/>
                </mxCell>
                <mxCell id="46" value="Difficult Point: How to interact with each row without affect the other rows." style="text;html=1;align=center;verticalAlign=middle;resizable=0;points=[];autosize=1;strokeColor=none;fillColor=none;fontSize=17;fontColor=#FFFFFF;" vertex="1" parent="1">
                    <mxGeometry x="133" y="763" width="563" height="24" as="geometry"/>
                </mxCell>
                <mxCell id="47" value="" style="rounded=0;whiteSpace=wrap;html=1;fontSize=17;fontColor=#FFFFFF;strokeColor=#FFFFFF;" vertex="1" parent="1">
                    <mxGeometry x="64" y="916" width="903" height="684" as="geometry"/>
                </mxCell>
                <mxCell id="48" value="" style="rounded=1;whiteSpace=wrap;html=1;fontSize=17;fontColor=#FFFFFF;strokeColor=#FFFFFF;" vertex="1" parent="1">
                    <mxGeometry x="807" y="967" width="120" height="60" as="geometry"/>
                </mxCell>
                <mxCell id="50" value="" style="rounded=0;whiteSpace=wrap;html=1;fontSize=17;fontColor=#FFFFFF;strokeColor=#FFFFFF;" vertex="1" parent="1">
                    <mxGeometry x="114" y="1048" width="801" height="484" as="geometry"/>
                </mxCell>
                <mxCell id="51" value="" style="rounded=0;whiteSpace=wrap;html=1;fontSize=17;fontColor=#FFFFFF;strokeColor=#FFFFFF;" vertex="1" parent="1">
                    <mxGeometry x="164" y="1104" width="201" height="111" as="geometry"/>
                </mxCell>
                <mxCell id="52" value="" style="rounded=0;whiteSpace=wrap;html=1;fontSize=17;fontColor=#FFFFFF;strokeColor=#FFFFFF;" vertex="1" parent="1">
                    <mxGeometry x="403" y="1104" width="201" height="111" as="geometry"/>
                </mxCell>
                <mxCell id="53" value="" style="rounded=0;whiteSpace=wrap;html=1;fontSize=17;fontColor=#FFFFFF;strokeColor=#FFFFFF;" vertex="1" parent="1">
                    <mxGeometry x="1053" y="1018" width="367" height="434" as="geometry"/>
                </mxCell>
            </root>
        </mxGraphModel>
    </diagram>
</mxfile>
